<mxfile host="app.diagrams.net" modified="2024-05-16T11:18:31.028Z" agent="Mozilla/5.0 (Windows NT 10.0; Win64; x64) AppleWebKit/537.36 (KHTML, like Gecko) Chrome/124.0.0.0 Safari/537.36" etag="nM6mIoAeiAGRkaO6XS8d" version="24.4.2" type="google">
  <diagram name="Page-1" id="eoHFoJQbqqkSnLUJk-sT">
    <mxGraphModel grid="1" page="1" gridSize="10" guides="1" tooltips="1" connect="1" arrows="1" fold="1" pageScale="1" pageWidth="827" pageHeight="1169" math="0" shadow="0">
      <root>
        <mxCell id="0" />
        <mxCell id="1" parent="0" />
        <mxCell id="7QjkbwkYLUTSWp5Ibt6S-1" value="Attore" style="shape=umlActor;verticalLabelPosition=bottom;verticalAlign=top;html=1;outlineConnect=0;" vertex="1" parent="1">
          <mxGeometry x="230" y="20" width="19.33" height="40" as="geometry" />
        </mxCell>
        <mxCell id="7QjkbwkYLUTSWp5Ibt6S-6" value="Sistema" style="shape=cube;whiteSpace=wrap;html=1;boundedLbl=1;backgroundOutline=1;darkOpacity=0.05;darkOpacity2=0.1;size=10;" vertex="1" parent="1">
          <mxGeometry x="560" y="30" width="70" height="35" as="geometry" />
        </mxCell>
        <mxCell id="hF6yMa9ehIADh6ry2k6l-12" value="OPT" style="shape=umlFrame;whiteSpace=wrap;html=1;pointerEvents=0;swimlaneFillColor=#dde9f8;fillColor=#dae8fc;strokeColor=#6c8ebf;width=50;height=20;fontSize=10;fontStyle=1;opacity=80;" vertex="1" parent="1">
          <mxGeometry x="180" y="110" width="480" height="60" as="geometry" />
        </mxCell>
        <mxCell id="hF6yMa9ehIADh6ry2k6l-13" value="" style="endArrow=classic;html=1;rounded=0;" edge="1" parent="1">
          <mxGeometry width="50" height="50" relative="1" as="geometry">
            <mxPoint x="240" y="130" as="sourcePoint" />
            <mxPoint x="600" y="130" as="targetPoint" />
          </mxGeometry>
        </mxCell>
        <mxCell id="hF6yMa9ehIADh6ry2k6l-14" value="0. consultaTabelloneTurni()" style="edgeLabel;html=1;align=center;verticalAlign=middle;resizable=0;points=[];labelBackgroundColor=none;" connectable="0" vertex="1" parent="hF6yMa9ehIADh6ry2k6l-13">
          <mxGeometry x="-0.2843" y="1" relative="1" as="geometry">
            <mxPoint x="57" y="-9" as="offset" />
          </mxGeometry>
        </mxCell>
        <mxCell id="hF6yMa9ehIADh6ry2k6l-15" value="" style="endArrow=classic;html=1;rounded=0;dashed=1;" edge="1" parent="1">
          <mxGeometry width="50" height="50" relative="1" as="geometry">
            <mxPoint x="600" y="150" as="sourcePoint" />
            <mxPoint x="240" y="150" as="targetPoint" />
          </mxGeometry>
        </mxCell>
        <mxCell id="hF6yMa9ehIADh6ry2k6l-16" value="ok" style="edgeLabel;html=1;align=center;verticalAlign=middle;resizable=0;points=[];labelBackgroundColor=none;" connectable="0" vertex="1" parent="hF6yMa9ehIADh6ry2k6l-15">
          <mxGeometry x="0.0241" y="-1" relative="1" as="geometry">
            <mxPoint y="-9" as="offset" />
          </mxGeometry>
        </mxCell>
        <mxCell id="hF6yMa9ehIADh6ry2k6l-18" value="OPT" style="shape=umlFrame;whiteSpace=wrap;html=1;pointerEvents=0;swimlaneFillColor=#dde9f8;fillColor=#dae8fc;strokeColor=#6c8ebf;width=50;height=20;fontSize=10;fontStyle=1;opacity=80;" vertex="1" parent="1">
          <mxGeometry x="180" y="190" width="480" height="60" as="geometry" />
        </mxCell>
        <mxCell id="hF6yMa9ehIADh6ry2k6l-19" value="" style="endArrow=classic;html=1;rounded=0;" edge="1" parent="1">
          <mxGeometry width="50" height="50" relative="1" as="geometry">
            <mxPoint x="240" y="210" as="sourcePoint" />
            <mxPoint x="600" y="210" as="targetPoint" />
          </mxGeometry>
        </mxCell>
        <mxCell id="hF6yMa9ehIADh6ry2k6l-20" value="1. generaTabelloneTurni(servizio, evento)" style="edgeLabel;html=1;align=center;verticalAlign=middle;resizable=0;points=[];labelBackgroundColor=none;" connectable="0" vertex="1" parent="hF6yMa9ehIADh6ry2k6l-19">
          <mxGeometry x="-0.2843" y="1" relative="1" as="geometry">
            <mxPoint x="57" y="-9" as="offset" />
          </mxGeometry>
        </mxCell>
        <mxCell id="hF6yMa9ehIADh6ry2k6l-21" value="" style="endArrow=classic;html=1;rounded=0;dashed=1;" edge="1" parent="1">
          <mxGeometry width="50" height="50" relative="1" as="geometry">
            <mxPoint x="600" y="230" as="sourcePoint" />
            <mxPoint x="240" y="230" as="targetPoint" />
          </mxGeometry>
        </mxCell>
        <mxCell id="hF6yMa9ehIADh6ry2k6l-22" value="tabellone turni generato" style="edgeLabel;html=1;align=center;verticalAlign=middle;resizable=0;points=[];labelBackgroundColor=none;" connectable="0" vertex="1" parent="hF6yMa9ehIADh6ry2k6l-21">
          <mxGeometry x="0.0241" y="-1" relative="1" as="geometry">
            <mxPoint y="-9" as="offset" />
          </mxGeometry>
        </mxCell>
        <mxCell id="hF6yMa9ehIADh6ry2k6l-23" value="LOOP" style="shape=umlFrame;whiteSpace=wrap;html=1;pointerEvents=0;swimlaneFillColor=#e1f9ec;fillColor=#E6FFCC;strokeColor=#6c8ebf;width=50;height=20;fontSize=10;fontStyle=1;opacity=80;" vertex="1" parent="1">
          <mxGeometry x="180" y="270" width="480" height="60" as="geometry" />
        </mxCell>
        <mxCell id="hF6yMa9ehIADh6ry2k6l-24" value="" style="endArrow=classic;html=1;rounded=0;" edge="1" parent="1">
          <mxGeometry width="50" height="50" relative="1" as="geometry">
            <mxPoint x="240" y="290" as="sourcePoint" />
            <mxPoint x="600" y="290" as="targetPoint" />
          </mxGeometry>
        </mxCell>
        <mxCell id="hF6yMa9ehIADh6ry2k6l-25" value="2. generaTurnoCucina(durata,luogo?,scedenza?,dataSvolg?,dataFine?)" style="edgeLabel;html=1;align=center;verticalAlign=middle;resizable=0;points=[];labelBackgroundColor=none;fontSize=10;" connectable="0" vertex="1" parent="hF6yMa9ehIADh6ry2k6l-24">
          <mxGeometry x="-0.2843" y="1" relative="1" as="geometry">
            <mxPoint x="57" y="-9" as="offset" />
          </mxGeometry>
        </mxCell>
        <mxCell id="hF6yMa9ehIADh6ry2k6l-26" value="" style="endArrow=classic;html=1;rounded=0;dashed=1;" edge="1" parent="1">
          <mxGeometry width="50" height="50" relative="1" as="geometry">
            <mxPoint x="600" y="310" as="sourcePoint" />
            <mxPoint x="240" y="310" as="targetPoint" />
          </mxGeometry>
        </mxCell>
        <mxCell id="hF6yMa9ehIADh6ry2k6l-27" value="turno di cucina generato" style="edgeLabel;html=1;align=center;verticalAlign=middle;resizable=0;points=[];labelBackgroundColor=none;fontSize=10;" connectable="0" vertex="1" parent="hF6yMa9ehIADh6ry2k6l-26">
          <mxGeometry x="0.0241" y="-1" relative="1" as="geometry">
            <mxPoint y="-9" as="offset" />
          </mxGeometry>
        </mxCell>
        <mxCell id="hF6yMa9ehIADh6ry2k6l-28" value="LOOP" style="shape=umlFrame;whiteSpace=wrap;html=1;pointerEvents=0;swimlaneFillColor=#e1f9ec;fillColor=#E6FFCC;strokeColor=#6c8ebf;width=50;height=20;fontSize=10;fontStyle=1;opacity=80;" vertex="1" parent="1">
          <mxGeometry x="180" y="350" width="480" height="60" as="geometry" />
        </mxCell>
        <mxCell id="hF6yMa9ehIADh6ry2k6l-29" value="" style="endArrow=classic;html=1;rounded=0;" edge="1" parent="1">
          <mxGeometry width="50" height="50" relative="1" as="geometry">
            <mxPoint x="240" y="370" as="sourcePoint" />
            <mxPoint x="600" y="370" as="targetPoint" />
          </mxGeometry>
        </mxCell>
        <mxCell id="hF6yMa9ehIADh6ry2k6l-30" value="2. generaTurnoServizio(durataPrep?,durataRig?,luogo?,scadenza?,dataFine?)" style="edgeLabel;html=1;align=center;verticalAlign=middle;resizable=0;points=[];labelBackgroundColor=none;fontSize=10;" connectable="0" vertex="1" parent="hF6yMa9ehIADh6ry2k6l-29">
          <mxGeometry x="-0.2843" y="1" relative="1" as="geometry">
            <mxPoint x="57" y="-9" as="offset" />
          </mxGeometry>
        </mxCell>
        <mxCell id="hF6yMa9ehIADh6ry2k6l-31" value="" style="endArrow=classic;html=1;rounded=0;dashed=1;" edge="1" parent="1">
          <mxGeometry width="50" height="50" relative="1" as="geometry">
            <mxPoint x="600" y="390" as="sourcePoint" />
            <mxPoint x="240" y="390" as="targetPoint" />
          </mxGeometry>
        </mxCell>
        <mxCell id="hF6yMa9ehIADh6ry2k6l-32" value="turno di servizio generato" style="edgeLabel;html=1;align=center;verticalAlign=middle;resizable=0;points=[];labelBackgroundColor=none;fontSize=10;" connectable="0" vertex="1" parent="hF6yMa9ehIADh6ry2k6l-31">
          <mxGeometry x="0.0241" y="-1" relative="1" as="geometry">
            <mxPoint y="-9" as="offset" />
          </mxGeometry>
        </mxCell>
        <mxCell id="7QjkbwkYLUTSWp5Ibt6S-4" value="" style="endArrow=none;html=1;rounded=0;dashed=1;dashPattern=12 12;" edge="1" parent="1">
          <mxGeometry width="50" height="50" relative="1" as="geometry">
            <mxPoint x="240" y="440" as="sourcePoint" />
            <mxPoint x="240" y="90" as="targetPoint" />
          </mxGeometry>
        </mxCell>
        <mxCell id="hF6yMa9ehIADh6ry2k6l-1" value="" style="endArrow=none;html=1;rounded=0;dashed=1;dashPattern=12 12;" edge="1" parent="1">
          <mxGeometry width="50" height="50" relative="1" as="geometry">
            <mxPoint x="600" y="440" as="sourcePoint" />
            <mxPoint x="600" y="90" as="targetPoint" />
          </mxGeometry>
        </mxCell>
      </root>
    </mxGraphModel>
  </diagram>
</mxfile>
